{
  "accessors": [
    {
      "bufferView": 2,
      "componentType": 5126,
      "count": 148,
      "max": [
        8.1045293807983398,
        8.1045293807983398,
        16.415899276733398
      ],
      "min": [
        -8.1045293807983398,
        -8.1045293807983398,
        -16.415899276733398
      ],
      "type": "VEC3"
    },
    {
      "bufferView": 2,
      "byteOffset": 1776,
      "componentType": 5126,
      "count": 148,
      "max": [
        1,
        1,
        1
      ],
      "min": [
        -1,
        -1,
        -1
      ],
      "type": "VEC3"
    },
    {
      "bufferView": 1,
      "componentType": 5126,
      "count": 148,
      "max": [
        1,
        1.0964912176132202
      ],
      "min": [
        0,
        0
      ],
      "type": "VEC2"
    },
    {
      "bufferView": 0,
      "componentType": 5125,
      "count": 432,
      "max": [
        147
      ],
      "min": [
        0
      ],
      "type": "SCALAR"
    },
    {
      "bufferView": 2,
      "byteOffset": 3552,
      "componentType": 5126,
      "count": 148,
      "max": [
        49.236003875732422,
        49.236003875732422,
        1.7262699604034424
      ],
      "min": [
        -49.236003875732422,
        -49.236003875732422,
        -1.7262699604034424
      ],
      "type": "VEC3"
    },
    {
      "bufferView": 2,
      "byteOffset": 5328,
      "componentType": 5126,
      "count": 148,
      "max": [
        1,
        1,
        1
      ],
      "min": [
        -1,
        -1,
        -1
      ],
      "type": "VEC3"
    },
    {
      "bufferView": 1,
      "byteOffset": 1184,
      "componentType": 5126,
      "count": 148,
      "max": [
        1,
        1
      ],
      "min": [
        0,
        0
      ],
      "type": "VEC2"
    },
    {
      "bufferView": 0,
      "byteOffset": 1728,
      "componentType": 5125,
      "count": 432,
      "max": [
        147
      ],
      "min": [
        0
      ],
      "type": "SCALAR"
    },
    {
      "bufferView": 2,
      "byteOffset": 7104,
      "componentType": 5126,
      "count": 148,
      "max": [
        2.8651800155639648,
        2.8651800155639648,
        139.4010009765625
      ],
      "min": [
        -2.8651800155639648,
        -2.8651800155639648,
        -139.4010009765625
      ],
      "type": "VEC3"
    },
    {
      "bufferView": 2,
      "byteOffset": 8880,
      "componentType": 5126,
      "count": 148,
      "max": [
        1,
        1,
        1
      ],
      "min": [
        -1,
        -1,
        -1
      ],
      "type": "VEC3"
    },
    {
      "bufferView": 1,
      "byteOffset": 2368,
      "componentType": 5126,
      "count": 148,
      "max": [
        1,
        1
      ],
      "min": [
        0,
        0
      ],
      "type": "VEC2"
    },
    {
      "bufferView": 0,
      "byteOffset": 3456,
      "componentType": 5125,
      "count": 432,
      "max": [
        147
      ],
      "min": [
        0
      ],
      "type": "SCALAR"
    },
    {
      "bufferView": 2,
      "byteOffset": 10656,
      "componentType": 5126,
      "count": 46273,
      "max": [
        150.16700744628906,
        140,
        150.16700744628906
      ],
      "min": [
        -150.16700744628906,
        -140,
        -150.16700744628906
      ],
      "type": "VEC3"
    },
    {
      "bufferView": 2,
      "byteOffset": 565932,
      "componentType": 5126,
      "count": 46273,
      "max": [
        1,
        1,
        1
      ],
      "min": [
        -1,
        -1,
        -1
      ],
      "type": "VEC3"
    },
    {
      "bufferView": 1,
      "byteOffset": 3552,
      "componentType": 5126,
      "count": 46273,
      "max": [
        1,
        1
      ],
      "min": [
        0,
        0
      ],
      "type": "VEC2"
    },
    {
      "bufferView": 0,
      "byteOffset": 5184,
      "componentType": 5125,
      "count": 71181,
      "max": [
        46272
      ],
      "min": [
        0
      ],
      "type": "SCALAR"
    }
  ],
  "asset": {
    "extras": {
      "author": "Nexilion (https://sketchfab.com/nexilion)",
      "license": "CC-BY-4.0 (http://creativecommons.org/licenses/by/4.0/)",
      "source": "https://sketchfab.com/3d-models/stehleuchte-flechtwerk-16c85e84b509435fb5c0880537267a0b",
      "title": "Stehleuchte Flechtwerk"
    },
    "generator": "Sketchfab-9.8.0",
    "version": "2.0"
  },
  "bufferViews": [
    {
      "buffer": 0,
      "byteLength": 289908,
      "byteOffset": 0,
      "name": "floatBufferViews",
      "target": 34963
    },
    {
      "buffer": 0,
      "byteLength": 373736,
      "byteOffset": 289908,
      "byteStride": 8,
      "name": "floatBufferViews",
      "target": 34962
    },
    {
      "buffer": 0,
      "byteLength": 1121208,
      "byteOffset": 663644,
      "byteStride": 12,
      "name": "floatBufferViews",
      "target": 34962
    }
  ],
  "buffers": [
    {
      "byteLength": 1784852,
      "uri": "scene.bin"
    }
  ],
  "materials": [
    {
      "doubleSided": true,
      "emissiveFactor": [
        0,
        0,
        0
      ],
      "name": "Metal_003",
      "pbrMetallicRoughness": {
        "baseColorFactor": [
          0.18858800000000001,
          0.199294,
          0.20999999999999999,
          1
        ],
        "metallicFactor": 0.64285700000000001,
        "roughnessFactor": 0.5
      }
    },
    {
      "doubleSided": true,
      "emissiveFactor": [
        0.35999999999999999,
        0.35999999999999999,
        0.35999999999999999
      ],
      "name": "Mat.002",
      "pbrMetallicRoughness": {
        "baseColorFactor": [
          0.89019599999999999,
          0.44571100000000002,
          0.12692700000000001,
          1
        ],
        "metallicFactor": 0,
        "roughnessFactor": 0.5
      }
    }
  ],
  "meshes": [
    {
      "primitives": [
        {
          "attributes": {
            "NORMAL": 1,
            "POSITION": 0,
            "TEXCOORD_0": 2
          },
          "indices": 3,
          "material": 0,
          "mode": 4
        }
      ]
    },
    {
      "primitives": [
        {
          "attributes": {
            "NORMAL": 5,
            "POSITION": 4,
            "TEXCOORD_0": 6
          },
          "indices": 7,
          "material": 0,
          "mode": 4
        }
      ]
    },
    {
      "primitives": [
        {
          "attributes": {
            "NORMAL": 9,
            "POSITION": 8,
            "TEXCOORD_0": 10
          },
          "indices": 11,
          "material": 0,
          "mode": 4
        }
      ]
    },
    {
      "primitives": [
        {
          "attributes": {
            "NORMAL": 13,
            "POSITION": 12,
            "TEXCOORD_0": 14
          },
          "indices": 15,
          "material": 1,
          "mode": 4
        }
      ]
    }
  ],
  "nodes": [
    {
      "children": [
        1
      ],
      "name": "RootNode (gltf orientation matrix)",
      "rotation": [
        -0.70710678118654746,
        -0,
        -0,
        0.70710678118654757
      ]
    },
    {
      "children": [
        2
      ],
      "name": "RootNode (model correction matrix)"
    },
    {
      "children": [
        3
      ],
      "name": "root"
    },
    {
      "children": [
        4,
        6,
        8,
        10
      ],
      "matrix": [
        1,
        0,
        0,
        0,
        0,
        2.2204460492503131e-16,
        1,
        0,
        0,
        -1,
        2.2204460492503131e-16,
        0,
        0,
        0,
        0,
        1
      ],
      "name": "GLTF_SceneRootNode"
    },
    {
      "children": [
        5
      ],
      "matrix": [
        0.0040000001899898052,
        0,
        0,
        0,
        0,
        -6.7434961975582871e-10,
        0.004000000189989748,
        0,
        0,
        -0.004000000189989748,
        -6.7434961975582871e-10,
        0,
        0,
        1.689482569694519,
        0,
        1
      ],
      "name": "Zylinder.2_2"
    },
    {
      "mesh": 0,
      "name": ""
    },
    {
      "children": [
        7
      ],
      "matrix": [
        0.0040000001899898052,
        0,
        0,
        0,
        0,
        -6.7434961975582871e-10,
        0.004000000189989748,
        0,
        0,
        -0.004000000189989748,
        -6.7434961975582871e-10,
        0,
        0,
        0.05039919912815094,
        0,
        1
      ],
      "name": "Zylinder.1_4"
    },
    {
      "mesh": 1,
      "name": ""
    },
    {
      "children": [
        9
      ],
      "matrix": [
        0.0040000001899898052,
        0,
        0,
        0,
        0,
        -6.7434961975582871e-10,
        0.004000000189989748,
        0,
        0,
        -0.0057590352371334214,
        -9.7090075946503759e-10,
        0,
        0,
        0.85410124063491821,
        0,
        1
      ],
      "name": "Zylinder_5"
    },
    {
      "mesh": 2,
      "name": ""
    },
    {
      "children": [
        11
      ],
      "matrix": [
        0.001900689909234643,
        0,
        0,
        0,
        0,
        0.0019006900256499648,
        0,
        0,
        0,
        0,
        0.0019006900256499648,
        0,
        0,
        1.9697470664978027,
        0,
        1
      ],
      "name": "Kugelleuchte-30cm_6"
    },
    {
      "mesh": 3,
      "name": ""
    }
  ],
  "scene": 0,
  "scenes": [
    {
      "name": "OSG_Scene",
      "nodes": [
        0
      ]
    }
  ]
}

